<svg width="24" height="24" viewBox="0 0 24 24" fill="none" xmlns="http://www.w3.org/2000/svg">
<path fill-rule="evenodd" clip-rule="evenodd" d="M11.8361 1.75C11.1805 1.74997 10.6163 1.74994 10.1532 1.81162C9.65179 1.87841 9.19542 2.02501 8.78942 2.36641C8.39327 2.69952 8.14939 3.13087 7.95214 3.62555C7.77968 4.05806 7.62036 4.60022 7.43432 5.25H4.64816C3.19914 5.25 2.33904 6.32293 1.98194 7.40879C1.62769 8.486 1.66803 9.81185 2.18353 10.7921C2.20668 10.8361 2.23016 10.8798 2.25399 10.9231C2.25009 10.9614 2.24909 11.0004 2.25121 11.04L2.40393 13.9003L2.40629 13.9522C2.48628 15.7125 2.54972 17.1084 2.74443 18.199C2.94497 19.3224 3.3008 20.227 4.04084 20.9342C4.78087 21.6413 5.70076 21.9557 6.83202 22.1051C7.9304 22.25 9.32767 22.25 11.0898 22.25H12.9105C14.6726 22.25 16.0699 22.25 17.1683 22.1051C18.2995 21.9557 19.2194 21.6413 19.9594 20.9342C20.6995 20.227 21.0553 19.3224 21.2559 18.199C21.4506 17.1084 21.514 15.7125 21.594 13.9522L21.5962 13.9033L21.5965 13.8973L21.7491 11.04C21.7512 11.0004 21.7502 10.9614 21.7463 10.9232C21.7701 10.8799 21.7936 10.8362 21.8168 10.7921C22.3323 9.81185 22.3726 8.486 22.0184 7.40879C21.6613 6.32293 20.8012 5.25 19.3522 5.25H16.5657C16.3797 4.60022 16.2203 4.05806 16.0479 3.62555C15.8506 3.13087 15.6068 2.69952 15.2106 2.36641C14.8046 2.02501 14.3482 1.87841 13.8468 1.81162C13.3837 1.74994 12.8196 1.74997 12.164 1.75H11.8361ZM15.0043 5.25C14.8729 4.80116 14.7648 4.45763 14.6546 4.18113C14.5009 3.79567 14.3729 3.62179 14.2452 3.51447C14.1275 3.41544 13.9741 3.34182 13.6488 3.29849C13.2963 3.25154 12.8328 3.25 12.117 3.25H11.883C11.1672 3.25 10.7037 3.25154 10.3512 3.29849C10.026 3.34182 9.87257 3.41544 9.7548 3.51447C9.62717 3.62179 9.49916 3.79567 9.34546 4.18113C9.23521 4.45763 9.12714 4.80116 8.99576 5.25H15.0043ZM3.40687 7.8774C3.15737 8.63609 3.21551 9.53177 3.51115 10.094C5.02306 12.969 8.50695 14.25 12.0002 14.25C15.4934 14.25 18.9773 12.969 20.4892 10.094C20.7848 9.53177 20.843 8.63609 20.5935 7.87739C20.3468 7.12736 19.9009 6.75 19.3522 6.75H4.64816C4.09942 6.75 3.65353 7.12736 3.40687 7.8774ZM12.7502 15.7317C15.4021 15.6022 18.1774 14.7757 20.1443 12.9629L20.0983 13.8233L20.098 13.8292C20.015 15.6568 19.9545 16.9535 19.7792 17.9354C19.6077 18.896 19.3427 19.4488 18.9231 19.8497C18.5036 20.2506 17.9393 20.4903 16.972 20.618C15.9831 20.7485 14.6849 20.75 12.8555 20.75H11.1448C9.31535 20.75 8.01716 20.7485 7.02832 20.618C6.06095 20.4903 5.49668 20.2506 5.07714 19.8497C4.65759 19.4488 4.39257 18.896 4.22108 17.9354C4.04579 16.9535 3.98534 15.6568 3.90227 13.8292L3.85601 12.9628C5.82285 14.7757 8.59818 15.6022 11.2502 15.7317V16.5C11.2502 16.9142 11.586 17.25 12.0002 17.25C12.4144 17.25 12.7502 16.9142 12.7502 16.5V15.7317Z" fill="#067647"/>
</svg>
