<svg width="24" height="24" viewBox="0 0 24 24" fill="none" xmlns="http://www.w3.org/2000/svg">
<path d="M8 22.75C5.06601 22.75 3.45 22.75 2.35 21.652C1.25 20.555 1.25 18.937 1.25 16V8C1.25 5.063 1.25 3.446 2.35 2.348C3.449 1.25 5.06599 1.25 7.99999 1.25H11C13.934 1.25 15.55 1.25 16.65 2.348C17.75 3.445 17.75 5.063 17.75 8V9C17.75 9.414 17.414 9.75 17 9.75C16.586 9.75 16.25 9.414 16.25 9V8C16.25 5.38231 16.25 4.06797 15.59 3.41001C14.929 2.75001 13.616 2.75 11 2.75H8C5.384 2.75 4.06996 2.75001 3.40996 3.41001C2.75 4.06897 2.75 5.38284 2.75 7.99954V16C2.75 18.6177 2.75 19.932 3.40996 20.59C4.07096 21.25 5.384 21.25 8 21.25C8.414 21.25 8.75 21.586 8.75 22C8.75 22.414 8.414 22.75 8 22.75Z" fill="#067647"/>
<path fill-rule="evenodd" clip-rule="evenodd" d="M11.96 22.75C11.017 22.75 10.25 21.983 10.25 21.04C10.25 19.784 11.101 18.716 12.321 18.438L14.125 17.957L13.985 17.263C13.926 16.955 13.807 16.643 13.68 16.313C13.535 15.935 13.386 15.544 13.303 15.111L13.296 15.069C13.275 14.912 13.25 14.716 13.25 14.501C13.25 12.709 14.708 11.251 16.5 11.251C18.292 11.251 19.75 12.709 19.75 14.501C19.75 14.731 19.732 14.932 19.696 15.117C19.614 15.545 19.465 15.936 19.32 16.314L19.3143 16.3291C19.1904 16.6535 19.0731 16.9606 19.017 17.256L18.875 17.958L20.679 18.439C21.899 18.717 22.75 19.785 22.75 21.041C22.75 21.984 21.983 22.751 21.04 22.751L11.96 22.75ZM15.098 19.25L12.662 19.898C12.125 20.017 11.75 20.487 11.75 21.04C11.75 21.156 11.844 21.25 11.96 21.25H21.04C21.156 21.25 21.25 21.156 21.25 21.04C21.25 20.487 20.875 20.017 20.338 19.898L20.307 19.89L17.902 19.249L15.098 19.25ZM15.614 17.75H17.387L17.545 16.966C17.626 16.5422 17.7749 16.1534 17.9188 15.7776C18.0458 15.4466 18.166 15.133 18.223 14.831C18.241 14.738 18.25 14.632 18.25 14.501C18.25 13.536 17.465 12.751 16.5 12.751C15.535 12.751 14.75 13.536 14.75 14.501C14.75 14.611 14.766 14.737 14.781 14.85C14.84 15.146 14.957 15.453 15.081 15.777L15.0835 15.7836C15.2267 16.1585 15.3745 16.5455 15.457 16.974L15.614 17.75Z" fill="#067647"/>
<path d="M8.21104 10.75H8.25L8.24805 10.7509C8.51105 10.7509 8.75599 10.612 8.89199 10.385C9.60999 9.18297 11.16 7.11996 12.264 6.70196C12.652 6.55496 12.847 6.12197 12.7 5.73497C12.553 5.34697 12.12 5.15198 11.733 5.29898C10.389 5.80798 9.03703 7.49795 8.25703 8.61495C7.70003 7.98195 7.18502 7.91695 6.99902 7.91695C6.58502 7.91695 6.24902 8.25295 6.24902 8.66695C6.24902 9.04795 6.532 9.36295 6.9 9.41095C6.961 9.44095 7.24004 9.60995 7.56904 10.317C7.68704 10.569 7.93404 10.736 8.21104 10.75Z" fill="#067647"/>
<path d="M10 14.75H6C5.586 14.75 5.25 14.414 5.25 14C5.25 13.586 5.586 13.25 6 13.25H10C10.414 13.25 10.75 13.586 10.75 14C10.75 14.414 10.414 14.75 10 14.75Z" fill="#067647"/>
<path d="M6 17.75H10C10.414 17.75 10.75 17.414 10.75 17C10.75 16.586 10.414 16.25 10 16.25H6C5.586 16.25 5.25 16.586 5.25 17C5.25 17.414 5.586 17.75 6 17.75Z" fill="#067647"/>
</svg>
