<svg width="24" height="24" viewBox="0 0 24 24" fill="none" xmlns="http://www.w3.org/2000/svg">
<path fill-rule="evenodd" clip-rule="evenodd" d="M5.5 2.25C3.70507 2.25 2.25 3.70507 2.25 5.5C2.25 7.29493 3.70507 8.75 5.5 8.75C7.29493 8.75 8.75 7.29493 8.75 5.5C8.75 3.70507 7.29493 2.25 5.5 2.25ZM3.75 5.5C3.75 4.5335 4.5335 3.75 5.5 3.75C6.4665 3.75 7.25 4.5335 7.25 5.5C7.25 6.4665 6.4665 7.25 5.5 7.25C4.5335 7.25 3.75 6.4665 3.75 5.5Z" fill="#067647"/>
<path d="M12.4697 15.4697C12.7626 15.1768 13.2374 15.1768 13.5303 15.4697L15.5 17.4393L17.4697 15.4697C17.7626 15.1768 18.2374 15.1768 18.5303 15.4697C18.8232 15.7626 18.8232 16.2374 18.5303 16.5303L16.5607 18.5L18.5303 20.4697C18.8232 20.7626 18.8232 21.2374 18.5303 21.5303C18.2374 21.8232 17.7626 21.8232 17.4697 21.5303L15.5 19.5607L13.5303 21.5303C13.2374 21.8232 12.7626 21.8232 12.4697 21.5303C12.1768 21.2374 12.1768 20.7626 12.4697 20.4697L14.4393 18.5L12.4697 16.5303C12.1768 16.2374 12.1768 15.7626 12.4697 15.4697Z" fill="#067647"/>
<path d="M17.4473 4.49306C17.7272 4.1878 18.2017 4.1673 18.5069 4.44727L20.8813 6.62496C21.0741 6.80167 21.2711 6.98226 21.413 7.15289C21.5739 7.34631 21.75 7.6251 21.75 8C21.75 8.37491 21.5739 8.65369 21.413 8.84711C21.2709 9.01795 21.0744 9.19812 20.8814 9.37504L18.5069 11.5527C18.2017 11.8327 17.7272 11.8122 17.4473 11.507C17.1673 11.2017 17.1878 10.7273 17.4931 10.4473L19.2991 8.79088C11.6634 9.16664 7.832 12.0696 5.88006 14.8649C3.77465 17.8799 3.75067 20.9175 3.74995 21.008L3.74994 21.0098C3.74454 21.424 3.4044 21.7553 2.99022 21.7499C2.57604 21.7445 2.24466 21.4044 2.25007 20.9902L2.25106 20.9301C2.25187 20.8955 2.25332 20.8488 2.25598 20.7911C2.26131 20.6756 2.27148 20.5159 2.291 20.3183C2.33001 19.9233 2.40651 19.3758 2.55693 18.7268C2.85742 17.4303 3.45584 15.7165 4.65024 14.0061C6.92125 10.7539 11.2502 7.64902 19.3823 7.28545L17.4931 5.55273C17.1878 5.27276 17.1673 4.79833 17.4473 4.49306Z" fill="#067647"/>
</svg>
