<svg width="20" height="21" viewBox="0 0 20 21" fill="none" xmlns="http://www.w3.org/2000/svg">
<path d="M5.5031 7.6294C5.60467 7.76388 5.90793 8.16534 6.08853 8.39676C6.45026 8.86027 6.94452 9.47618 7.47769 10.0903C8.01356 10.7074 8.57648 11.3085 9.07658 11.7504C9.32734 11.972 9.54762 12.1403 9.72939 12.2499C9.90035 12.353 10.0013 12.3744 10.0013 12.3744C10.0013 12.3744 10.0994 12.353 10.2703 12.2499C10.4521 12.1403 10.6724 11.972 10.9231 11.7504C11.4232 11.3085 11.9861 10.7074 12.522 10.0902C13.0552 9.47616 13.5494 8.86025 13.9112 8.39673C14.0918 8.16531 14.3946 7.76442 14.4962 7.62994C14.7009 7.352 15.0925 7.29206 15.3705 7.49675C15.6484 7.70145 15.7078 8.09269 15.5031 8.37063L15.5015 8.37273C15.395 8.51376 15.0809 8.92963 14.8966 9.16577C14.5267 9.63975 14.018 10.2738 13.4659 10.9098C12.9165 11.5426 12.3117 12.1915 11.7508 12.6871C11.471 12.9343 11.1875 13.1566 10.9157 13.3204C10.661 13.4739 10.3386 13.625 9.99985 13.625C9.66109 13.625 9.33868 13.4739 9.08404 13.3204C8.81223 13.1566 8.52866 12.9343 8.24891 12.6871C7.68798 12.1915 7.08325 11.5426 6.53382 10.9098C5.98169 10.2739 5.473 9.63978 5.1031 9.1658C4.91871 8.92953 4.60464 8.51371 4.4983 8.37292L4.4969 8.37107C4.2922 8.09313 4.35128 7.70149 4.62922 7.49679C4.90714 7.2921 5.2984 7.35149 5.5031 7.6294Z" fill="black"/>
</svg>
