<svg width="21" height="20" viewBox="0 0 21 20" fill="none" xmlns="http://www.w3.org/2000/svg">
<path fill-rule="evenodd" clip-rule="evenodd" d="M6.29167 9.99992C6.29167 7.58367 8.25042 5.62492 10.6667 5.62492C13.0829 5.62492 15.0417 7.58367 15.0417 9.99992C15.0417 12.4162 13.0829 14.3749 10.6667 14.3749C8.25042 14.3749 6.29167 12.4162 6.29167 9.99992ZM10.6667 6.87492C8.94078 6.87492 7.54167 8.27403 7.54167 9.99992C7.54167 11.7258 8.94078 13.1249 10.6667 13.1249C12.3926 13.1249 13.7917 11.7258 13.7917 9.99992C13.7917 8.27403 12.3926 6.87492 10.6667 6.87492Z" fill="white"/>
<path d="M15.2565 6.24992C15.7167 6.24992 16.0898 5.87682 16.0898 5.41658C16.0898 4.95635 15.7167 4.58325 15.2565 4.58325H15.249C14.7888 4.58325 14.4157 4.95635 14.4157 5.41658C14.4157 5.87682 14.7888 6.24992 15.249 6.24992H15.2565Z" fill="white"/>
<path fill-rule="evenodd" clip-rule="evenodd" d="M10.7143 1.45825C12.5399 1.45824 13.9738 1.45823 15.0933 1.60875C16.2405 1.76299 17.1507 2.08551 17.8659 2.80068C18.5811 3.51584 18.9036 4.42606 19.0578 5.57327C19.2084 6.69278 19.2083 8.12667 19.2083 9.95225V10.0476C19.2083 11.8731 19.2084 13.3071 19.0578 14.4266C18.9036 15.5738 18.5811 16.484 17.8659 17.1992C17.1507 17.9143 16.2405 18.2368 15.0933 18.3911C13.9738 18.5416 12.5399 18.5416 10.7143 18.5416H10.619C8.79345 18.5416 7.35953 18.5416 6.24002 18.3911C5.09281 18.2368 4.18259 17.9143 3.46743 17.1992C2.75226 16.484 2.42973 15.5738 2.27549 14.4266C2.12498 13.3071 2.12499 11.8732 2.125 10.0476V9.95227C2.12499 8.12668 2.12498 6.69279 2.27549 5.57327C2.42973 4.42606 2.75226 3.51584 3.46743 2.80068C4.18259 2.08551 5.09281 1.76299 6.24002 1.60875C7.35953 1.45823 8.79342 1.45824 10.619 1.45825H10.7143ZM6.40658 2.8476C5.39798 2.9832 4.79552 3.24036 4.35131 3.68456C3.90711 4.12877 3.64995 4.73123 3.51435 5.73983C3.37633 6.76641 3.375 8.11627 3.375 9.99992C3.375 11.8836 3.37633 13.2334 3.51435 14.26C3.64995 15.2686 3.90711 15.8711 4.35131 16.3153C4.79552 16.7595 5.39798 17.0166 6.40658 17.1522C7.43316 17.2903 8.78302 17.2916 10.6667 17.2916C12.5503 17.2916 13.9002 17.2903 14.9268 17.1522C15.9354 17.0166 16.5378 16.7595 16.982 16.3153C17.4262 15.8711 17.6834 15.2686 17.819 14.26C17.957 13.2334 17.9583 11.8836 17.9583 9.99992C17.9583 8.11627 17.957 6.76641 17.819 5.73983C17.6834 4.73123 17.4262 4.12877 16.982 3.68456C16.5378 3.24036 15.9354 2.9832 14.9268 2.8476C13.9002 2.70958 12.5503 2.70825 10.6667 2.70825C8.78302 2.70825 7.43316 2.70958 6.40658 2.8476Z" fill="white"/>
</svg>
