<svg width="21" height="20" viewBox="0 0 21 20" fill="none" xmlns="http://www.w3.org/2000/svg">
<path fill-rule="evenodd" clip-rule="evenodd" d="M1.7085 3.54175C1.7085 2.16104 2.82778 1.04175 4.2085 1.04175C5.58921 1.04175 6.7085 2.16104 6.7085 3.54175C6.7085 4.92246 5.58921 6.04175 4.2085 6.04175C2.82778 6.04175 1.7085 4.92246 1.7085 3.54175ZM4.2085 2.29175C3.51814 2.29175 2.9585 2.85139 2.9585 3.54175C2.9585 4.2321 3.51814 4.79175 4.2085 4.79175C4.89885 4.79175 5.4585 4.2321 5.4585 3.54175C5.4585 2.85139 4.89885 2.29175 4.2085 2.29175Z" fill="white"/>
<path fill-rule="evenodd" clip-rule="evenodd" d="M3.96288 7.29175H4.45413C4.81481 7.29171 5.1455 7.29167 5.41451 7.32784C5.71074 7.36766 6.02385 7.46137 6.28137 7.71889C6.53889 7.97641 6.63259 8.28951 6.67242 8.58575C6.70859 8.85476 6.70855 9.18545 6.70851 9.54612L6.70851 16.704C6.70855 17.0647 6.70859 17.3954 6.67242 17.6644C6.63259 17.9607 6.53889 18.2738 6.28137 18.5313C6.02385 18.7888 5.71074 18.8825 5.41451 18.9223C5.1455 18.9585 4.8148 18.9585 4.45412 18.9584H3.96288C3.6022 18.9585 3.27151 18.9585 3.0025 18.9223C2.70626 18.8825 2.39316 18.7888 2.13564 18.5313C1.87812 18.2738 1.78441 17.9607 1.74458 17.6644C1.70842 17.3954 1.70846 17.0647 1.7085 16.704L1.7085 9.54613C1.70846 9.18545 1.70842 8.85476 1.74458 8.58575C1.78441 8.28951 1.87812 7.97641 2.13564 7.71889C2.39316 7.46137 2.70626 7.36766 3.0025 7.32784C3.27151 7.29167 3.6022 7.29171 3.96288 7.29175ZM3.01953 8.60278L3.02156 8.60164C3.02317 8.6008 3.02593 8.59945 3.03014 8.59772C3.04829 8.59025 3.08859 8.57751 3.16906 8.56669C3.34466 8.54308 3.58966 8.54175 4.00017 8.54175H4.41684C4.82734 8.54175 5.07235 8.54308 5.24795 8.56669C5.32841 8.57751 5.36871 8.59025 5.38686 8.59772C5.39107 8.59945 5.39383 8.6008 5.39544 8.60164L5.39747 8.60278L5.39862 8.60481C5.39946 8.60642 5.40081 8.60919 5.40254 8.61339C5.41 8.63154 5.42275 8.67184 5.43357 8.75231C5.45717 8.92791 5.4585 9.17291 5.4585 9.58342L5.4585 16.6668C5.4585 17.0773 5.45717 17.3223 5.43357 17.4979C5.42275 17.5783 5.41 17.6186 5.40254 17.6368C5.40081 17.641 5.39946 17.6437 5.39862 17.6454L5.39747 17.6474L5.39544 17.6485C5.39383 17.6494 5.39107 17.6507 5.38686 17.6525C5.36871 17.6599 5.32841 17.6727 5.24795 17.6835C5.07235 17.7071 4.82734 17.7084 4.41684 17.7084H4.00017C3.58966 17.7084 3.34466 17.7071 3.16906 17.6835C3.08859 17.6727 3.04829 17.6599 3.03014 17.6525C3.02593 17.6507 3.02317 17.6494 3.02156 17.6485L3.01953 17.6474L3.01839 17.6454C3.01754 17.6437 3.0162 17.641 3.01447 17.6368C3.007 17.6186 2.99426 17.5783 2.98344 17.4979C2.95983 17.3223 2.9585 17.0773 2.9585 16.6668L2.9585 9.58342C2.9585 9.17291 2.95983 8.92791 2.98344 8.75231C2.99426 8.67184 3.007 8.63154 3.01447 8.61339C3.0162 8.60919 3.01754 8.60642 3.01839 8.60481L3.01953 8.60278Z" fill="white"/>
<path fill-rule="evenodd" clip-rule="evenodd" d="M10.2129 7.29175C10.4542 7.29173 11.4261 7.29172 11.6106 7.30862C11.8101 7.32689 12.0273 7.3689 12.2366 7.49135C12.4526 7.61774 12.6325 7.7976 12.7589 8.01362L12.7689 8.03103C13.427 7.56633 14.2214 7.29195 15.0808 7.29195C17.3268 7.29195 19.6252 9.2038 19.6252 11.667L19.6241 16.288C19.6241 16.6486 19.624 16.9793 19.5878 17.2482C19.5479 17.5444 19.4542 17.8574 19.1966 18.1148C18.9391 18.3723 18.6261 18.466 18.3299 18.5058C18.061 18.5419 17.7303 18.5419 17.3697 18.5419H16.8795C16.5188 18.5419 16.1881 18.5419 15.9191 18.5058C15.6229 18.4659 15.3098 18.3722 15.0523 18.1147C14.7948 17.8572 14.701 17.5441 14.6612 17.2479C14.6251 16.9789 14.6251 16.6482 14.6251 16.2875L14.6251 12.5002C14.6251 12.1189 14.3431 11.8752 14.0734 11.8752C13.6424 11.8752 13.4107 12.0405 13.2514 12.3049C13.0642 12.6157 12.9585 13.1074 12.9585 13.7502L12.9585 16.7041C12.9586 17.0647 12.9586 17.3954 12.9224 17.6644C12.8826 17.9607 12.7889 18.2738 12.5314 18.5313C12.2739 18.7888 11.9607 18.8825 11.6645 18.9223C11.3955 18.9585 11.0648 18.9585 10.7041 18.9584H10.2129C9.85219 18.9585 9.5215 18.9585 9.2525 18.9223C8.95626 18.8825 8.64316 18.7888 8.38564 18.5313C8.12812 18.2738 8.03441 17.9607 7.99459 17.6644C7.95842 17.3954 7.95846 17.0647 7.9585 16.704L7.9585 9.54613C7.95846 9.18545 7.95842 8.85476 7.99459 8.58575C8.03441 8.28951 8.12812 7.97641 8.38564 7.71889C8.64316 7.46137 8.95626 7.36766 9.2525 7.32784C9.52151 7.29167 9.8522 7.29171 10.2129 7.29175ZM10.2502 8.54175C9.83966 8.54175 9.59465 8.54308 9.41905 8.56668C9.36267 8.56449 9.2466 8.59854 9.23343 8.7523C9.20982 8.9279 9.2085 9.17291 9.2085 9.58341L9.2085 16.6667C9.2085 17.0773 9.20982 17.3223 9.23343 17.4979C9.24349 17.5995 9.36137 17.664 9.41905 17.6835C9.59465 17.7071 9.83966 17.7084 10.2502 17.7084H10.6668C11.0773 17.7084 11.3224 17.7071 11.498 17.6835C11.5553 17.669 11.6727 17.6116 11.6836 17.4979C11.7072 17.3223 11.7085 17.0773 11.7085 16.6668L11.7085 13.7502C11.7085 13.0122 11.8229 12.2539 12.1807 11.6599C12.5664 11.0195 13.2046 10.6252 14.0734 10.6252C15.1035 10.6252 15.8751 11.5007 15.8751 12.5002V16.2502C15.8751 16.6607 15.8765 16.9057 15.9001 17.0813C15.9001 17.213 15.9797 17.2351 16.0418 17.2523C16.0583 17.2569 16.0735 17.2611 16.0857 17.2669C16.2613 17.2905 16.5063 17.2918 16.9168 17.2918L17.3324 17.2918C17.7429 17.2918 17.9878 17.2905 18.1634 17.2669C18.2212 17.2455 18.3392 17.1783 18.349 17.0814C18.3726 16.9058 18.374 16.6608 18.3741 16.2504L18.3752 11.6668C18.3751 9.98788 16.7341 8.54195 15.0808 8.54195C14.1829 8.54195 13.3704 8.98097 12.831 9.69011C12.6686 9.90359 12.3881 9.98964 12.1339 9.90396C11.8797 9.81827 11.7086 9.57996 11.7085 9.31173C11.7085 9.03759 11.7079 8.87423 11.6969 8.75374C11.69 8.6277 11.5605 8.56766 11.4965 8.5534C11.376 8.54236 11.2127 8.54175 10.9385 8.54175L10.2502 8.54175Z" fill="white"/>
</svg>
