<svg width="24" height="25" viewBox="0 0 24 25" fill="none" xmlns="http://www.w3.org/2000/svg">
<path d="M11.7501 1.75C8.85063 1.75 6.50012 4.1005 6.50012 7C6.50012 9.89949 8.85063 12.25 11.7501 12.25C14.6496 12.25 17.0001 9.89949 17.0001 7C17.0001 4.1005 14.6496 1.75 11.7501 1.75Z" fill="#17774F"/>
<path d="M17.975 15.5771C17.814 15.4862 17.6717 15.4059 17.5563 15.3372C14.0022 13.2209 9.4981 13.2209 5.94405 15.3372C5.82774 15.4064 5.68405 15.4875 5.52139 15.5793C4.80858 15.9814 3.73107 16.5893 2.9929 17.3118C2.53123 17.7637 2.09258 18.3592 2.01283 19.0888C1.92803 19.8646 2.26649 20.5927 2.94551 21.2396C4.11696 22.3556 5.52274 23.25 7.34105 23.25H16.1593C17.9776 23.25 19.3834 22.3556 20.5548 21.2396C21.2338 20.5927 21.5723 19.8646 21.4875 19.0888C21.4077 18.3592 20.9691 17.7637 20.5074 17.3118C19.7692 16.5893 18.6917 15.9814 17.9789 15.5793L17.975 15.5771Z" fill="#17774F"/>
</svg>
