<svg width="42" height="39" viewBox="0 0 42 39" fill="none" xmlns="http://www.w3.org/2000/svg">
<path d="M15.75 16.25L22.0422 20.6321C22.4489 20.9153 23.0016 20.8579 23.3415 20.4973L35 8.125" stroke="#DBA102" stroke-width="2" stroke-linecap="round"/>
<path d="M36.75 19.5C36.75 22.5558 35.7192 25.5348 33.8023 28.0187C31.8855 30.5026 29.1789 32.3666 26.0627 33.3489C22.9465 34.3311 19.5772 34.3823 16.428 33.4953C13.2789 32.6082 10.508 30.8275 8.50469 28.4031C6.50134 25.9788 5.36611 23.0327 5.25843 19.9785C5.15076 16.9244 6.07605 13.9156 7.90435 11.3748C9.73266 8.83398 12.3721 6.88878 15.4521 5.81238C18.532 4.73597 21.8977 4.58244 25.0764 5.37333" stroke="#DBA102" stroke-width="2" stroke-linecap="round"/>
</svg>
