<svg width="21" height="20" viewBox="0 0 21 20" fill="none" xmlns="http://www.w3.org/2000/svg">
<path fill-rule="evenodd" clip-rule="evenodd" d="M2.61027 2.21547C2.71712 2.00649 2.93204 1.875 3.16675 1.875H7.33342C7.53411 1.875 7.72259 1.97137 7.84009 2.13407L11.9534 7.82945L17.7248 2.05806C17.9689 1.81398 18.3646 1.81398 18.6087 2.05806C18.8528 2.30214 18.8528 2.69786 18.6087 2.94194L12.6947 8.85589L18.6734 17.1341C18.8108 17.3243 18.8301 17.5756 18.7232 17.7845C18.6164 17.9935 18.4015 18.125 18.1668 18.125H14.0001C13.7994 18.125 13.6109 18.0286 13.4934 17.8659L9.38008 12.1706L3.60869 17.9419C3.36461 18.186 2.96889 18.186 2.72481 17.9419C2.48073 17.6979 2.48073 17.3021 2.72481 17.0581L8.63876 11.1441L2.66008 2.86593C2.52266 2.67566 2.50342 2.42444 2.61027 2.21547ZM4.3891 3.125L14.3197 16.875H16.9444L7.01385 3.125H4.3891Z" fill="white"/>
</svg>
